<?xml version="1.0" encoding="UTF-8"?>
<svg xmlns="http://www.w3.org/2000/svg" version="1.1" viewBox="0 0 640 640">
  <!-- Generator: Adobe Illustrator 29.6.1, SVG Export Plug-In . SVG Version: 2.1.1 Build 9)  -->
  <defs>
    <style>
      .st0 {
        fill: #25d366;
      }

      .st1 {
        display: none;
      }
    </style>
  </defs>
  <g id="Camada_2">
    <circle cx="320" cy="320" r="250"/>
  </g>
  <g id="Camada_1">
    <g>
      <rect class="st1" x="70" y="70" width="500" height="500"/>
      <path class="st0" d="M375.47,318.44c-1.89,18.13-12.52,39.45-25.77,51.97-25.77,24.36-51.02,17.05-70.66-9.84-8.72-11.95-15.14-27.13-17.66-41.73,5.4-1.18,10.58,1.97,16.04,1.98,19.05.07,21.06-8.76,34.2-15.83,12.88-6.91,18.62,5.05,28.66,10.73,12.26,6.91,21.93,5.24,35.17,2.72Z"/>
      <g>
        <path class="st0" d="M436.86,408.28c3.31-.36,3.55,3.54,1.54,5.51-2.37,2.32-13.3,6.56-17.09,8.7-24.88,13.97-47.73,30.8-69.02,49.76-1.1,1.68-4.17-.1-4.16-1.07,0-.21,2.16-2.77,2.59-3.24,5.62-6.24,13.92-13.48,20.45-19.01,19.64-16.59,42.47-29.76,65.67-40.64Z"/>
        <path class="st0" d="M396.57,235.23c17.09,13.68,14.08,39.16,9.77,58.22-.24,1.08-2.13,12.34-4.3,10.15.62-17.78,5.95-43.97-6.63-58.6-14.38-16.72-39.79-7.73-58.61-6.25-25.48,2.02-49.71-2.2-74.96-3.15-12.34-.46-24.8.41-37.14.02-.23-.22.88-5.28,1.17-6.24,4.36-13.91,14.36-34.23,20.56-48.19,4.38-9.86,9.48-19.43,13.52-29.45l3.03-1.26-27.34,78.12c11.56.35,23.23-.46,34.8-.03,20.92.77,41.35,4.16,62.51,3.2,18.31-.84,48.43-8.71,63.64,3.47Z"/>
        <path class="st0" d="M293.98,468.66c1.52,1.67.2,3.7-1.71,3.7-1.82,0-15.04-13.81-17.56-16.05-12.95-11.44-27.41-22.79-41.63-32.59-7.05-4.85-14.93-8.87-21.47-14.26,1.33-3.63,1.73-4.62,5.73-2.8,6.12,2.78,18.05,10.96,24.01,15.05,19.01,13.05,35.66,28,50.55,45.58.58.68,1.62.86,2.09,1.38Z"/>
      </g>
    </g>
  </g>
</svg>